<?xml version="1.0" standalone="no"?>
<!DOCTYPE svg PUBLIC "-//W3C//DTD SVG 20010904//EN"
 "http://www.w3.org/TR/2001/REC-SVG-20010904/DTD/svg10.dtd">
<svg version="1.0" xmlns="http://www.w3.org/2000/svg"
 width="500.000000pt" height="500.000000pt" viewBox="0 0 500.000000 500.000000"
 preserveAspectRatio="xMidYMid meet">
<metadata>
Created by potrace 1.14, written by Peter Selinger 2001-2017
</metadata>
<g transform="translate(0.000000,500.000000) scale(0.100000,-0.100000)"
fill="#000000" stroke="none">
<path d="M2040 3763 c-73 -8 -320 -55 -435 -84 -161 -40 -392 -114 -434 -140
l-34 -20 5 -67 c4 -50 17 -92 50 -167 55 -123 62 -151 48 -184 -14 -35 -105
-92 -215 -134 -160 -63 -285 -127 -285 -146 0 -9 21 -41 48 -69 l47 -52 138
46 c170 58 175 56 141 -51 -27 -85 -44 -180 -44 -247 0 -42 -3 -48 -34 -66
-18 -11 -44 -23 -57 -27 -13 -4 -47 -18 -74 -31 -28 -12 -75 -32 -105 -44
-119 -46 -260 -113 -260 -123 0 -10 17 -9 260 13 58 5 151 12 208 16 99 7 102
6 102 -14 0 -31 62 -172 100 -227 64 -93 141 -158 266 -227 220 -120 311 -142
599 -143 246 0 270 6 464 118 24 14 50 23 57 20 8 -3 28 -32 46 -66 41 -77
143 -182 233 -240 134 -86 329 -137 524 -137 161 0 263 29 438 121 316 168
443 320 484 579 26 171 -22 334 -158 531 -29 42 -60 82 -69 89 -8 8 -22 27
-31 43 -20 40 -8 47 82 47 90 0 115 15 115 70 0 48 4 47 -175 55 -94 5 -134
11 -145 21 -12 11 -15 38 -14 117 1 118 14 173 85 361 56 148 57 175 6 207
-153 94 -690 131 -902 62 -79 -26 -128 -57 -138 -89 -5 -16 -10 -103 -10 -194
-1 -125 3 -185 17 -249 22 -104 16 -123 -51 -145 -64 -21 -222 -48 -244 -41
-9 3 -38 34 -65 68 -27 34 -71 86 -97 115 -36 39 -45 57 -38 66 6 7 54 23 107
37 70 17 99 29 107 44 14 26 13 133 -1 147 -8 8 -43 5 -129 -11 -121 -21 -209
-27 -229 -13 -39 25 -73 161 -82 327 -7 116 -8 119 -32 126 -26 7 -130 8 -190
2z m380 -753 c105 -110 191 -305 225 -515 24 -141 24 -145 34 -145 9 0 26 38
67 149 32 87 91 164 157 205 56 34 52 34 482 6 165 -11 354 -23 420 -26 l120
-6 69 -71 c57 -60 79 -94 137 -212 92 -188 123 -299 117 -415 -5 -76 -10 -96
-44 -160 -49 -93 -180 -229 -284 -292 -144 -89 -370 -152 -545 -152 -98 0
-120 3 -205 32 -238 82 -402 261 -470 512 -30 112 -48 125 -90 63 -35 -52
-158 -146 -244 -188 -145 -69 -326 -97 -491 -76 -172 23 -400 117 -501 205
-40 36 -45 44 -36 66 5 14 6 36 2 50 -5 21 -13 26 -46 28 -37 3 -42 7 -63 49
-12 25 -21 46 -19 48 2 1 52 7 112 12 100 9 112 12 132 37 25 28 44 84 44 129
0 36 -22 78 -67 128 -31 34 -41 39 -78 39 -24 0 -72 -9 -106 -20 -35 -10 -65
-17 -67 -15 -10 9 23 157 49 225 47 121 72 150 149 172 304 88 933 221 965
205 11 -6 45 -36 75 -67z"/>
<path d="M1749 2871 c-139 -38 -273 -117 -326 -193 -26 -38 -26 -38 -8 -78 23
-50 90 -121 137 -143 40 -19 132 -23 173 -7 52 20 71 142 41 260 -17 64 -13
71 55 106 51 26 66 41 53 54 -19 18 -62 18 -125 1z"/>
<path d="M2023 2583 c-19 -7 -16 -50 4 -57 24 -10 51 20 37 41 -12 19 -23 24
-41 16z"/>
<path d="M3063 2512 c-18 -2 -33 -7 -33 -11 0 -15 56 -59 91 -70 20 -6 46 -23
59 -36 l23 -25 -33 -61 c-27 -51 -32 -69 -28 -108 11 -112 75 -173 190 -179
119 -7 193 38 233 142 18 46 18 47 -6 98 -33 72 -111 148 -189 186 -97 47
-220 73 -307 64z"/>
<path d="M1997 2484 c-10 -11 -9 -52 3 -59 5 -3 21 -3 35 1 21 5 25 12 23 33
-2 19 -9 27 -28 29 -14 2 -29 0 -33 -4z"/>
<path d="M1926 2381 c-23 -26 -13 -76 20 -97 22 -15 26 -15 56 3 22 13 34 28
36 45 7 56 -74 91 -112 49z"/>
<path d="M3928 2356 c-145 -52 -219 -167 -155 -241 18 -21 34 -27 82 -32 52
-4 64 -2 88 17 31 24 30 19 11 148 -6 41 -4 45 37 83 l42 39 -34 0 c-19 -1
-50 -7 -71 -14z"/>
<path d="M1852 2228 c-20 -20 -14 -46 14 -65 31 -20 57 -9 62 26 7 42 -46 69
-76 39z"/>
<path d="M1701 2174 c-26 -34 -26 -36 4 -84 21 -33 31 -40 58 -40 41 0 77 25
77 54 0 28 -69 96 -97 96 -12 0 -31 -12 -42 -26z"/>
<path d="M1396 2105 c-53 -54 -20 -115 75 -138 42 -10 73 20 64 61 -12 58
-106 110 -139 77z"/>
<path d="M1588 2109 c-11 -6 -18 -22 -18 -39 0 -46 10 -60 41 -60 36 0 66 48
49 80 -6 11 -15 20 -20 20 -4 0 -14 2 -22 5 -7 2 -21 0 -30 -6z"/>
<path d="M3591 2052 c-48 -24 -66 -78 -50 -146 9 -39 25 -62 78 -116 93 -94
191 -140 304 -140 40 0 49 4 58 23 24 52 -33 161 -151 289 -92 101 -165 128
-239 90z"/>
<path d="M4039 1923 c-13 -34 12 -59 42 -42 23 12 24 32 3 53 -22 23 -33 20
-45 -11z"/>
<path d="M3076 1894 c-35 -35 -31 -95 7 -102 19 -4 67 41 67 62 0 15 -37 56
-51 56 -4 0 -15 -7 -23 -16z"/>
<path d="M3974 1825 c-8 -33 12 -57 44 -53 58 7 53 70 -6 76 -26 3 -32 -1 -38
-23z"/>
<path d="M3225 1828 c-32 -19 -44 -40 -45 -81 0 -54 15 -77 50 -77 39 0 70 41
70 92 0 70 -27 94 -75 66z"/>
<path d="M3517 1683 c-43 -48 -24 -123 31 -123 59 0 92 68 56 118 -19 27 -64
29 -87 5z"/>
<path d="M3331 1664 c-19 -24 -20 -30 -7 -48 19 -29 41 -31 66 -6 30 30 24 74
-11 78 -19 2 -33 -4 -48 -24z"/>
<path d="M3656 1627 c-26 -19 -18 -61 12 -65 22 -3 62 22 62 39 0 12 -30 39
-44 39 -7 0 -20 -6 -30 -13z"/>
<path d="M3782 1628 c-31 -31 15 -71 57 -49 25 14 26 24 5 45 -18 19 -45 21
-62 4z"/>
</g>
</svg>
